<?xml version="1.0" encoding="utf-8" standalone="no"?>
<!DOCTYPE svg PUBLIC "-//W3C//DTD SVG 1.1//EN"
  "http://www.w3.org/Graphics/SVG/1.1/DTD/svg11.dtd">
<svg xmlns:xlink="http://www.w3.org/1999/xlink" width="415.922656pt" height="220.498482pt" viewBox="0 0 415.922656 220.498482" xmlns="http://www.w3.org/2000/svg" version="1.1">
 <metadata>
  <rdf:RDF xmlns:dc="http://purl.org/dc/elements/1.1/" xmlns:cc="http://creativecommons.org/ns#" xmlns:rdf="http://www.w3.org/1999/02/22-rdf-syntax-ns#">
   <cc:Work>
    <dc:type rdf:resource="http://purl.org/dc/dcmitype/StillImage"/>
    <dc:date>2026-09-22T11:42:57.339972</dc:date>
    <dc:format>image/svg+xml</dc:format>
    <dc:creator>
     <cc:Agent>
      <dc:title>Matplotlib v3.9.4, https://matplotlib.org/</dc:title>
     </cc:Agent>
    </dc:creator>
   </cc:Work>
  </rdf:RDF>
 </metadata>
 <defs>
  <style type="text/css">*{stroke-linejoin: round; stroke-linecap: butt}</style>
 </defs>
 <g id="figure_1">
  <g id="patch_1">
   <path d="M 0 220.498482 
L 415.922656 220.498482 
L 415.922656 0 
L 0 0 
z
" style="fill: #ffffff"/>
  </g>
  <g id="axes_1">
   <g id="patch_2">
    <path d="M 51.455625 177.10692 
L 398.385625 177.10692 
L 398.385625 8.839626 
L 51.455625 8.839626 
z
" style="fill: #ffffff"/>
   </g>
   <g id="matplotlib.axis_1">
    <g id="xtick_1">
     <g id="line2d_1">
      <path d="M 51.455625 177.10692 
L 51.455625 8.839626 
" clip-path="url(#p387c997cf3)" style="fill: none; stroke: #b0b0b0; stroke-opacity: 0.17; stroke-width: 0.8; stroke-linecap: square"/>
     </g>
     <g id="line2d_2">
      <defs>
       <path id="md52fe422ac" d="M 0 0 
L 0 3.5 
" style="stroke: #000000; stroke-width: 0.8"/>
      </defs>
      <g>
       <use xlink:href="#md52fe422ac" x="51.455625" y="177.10692" style="stroke: #000000; stroke-width: 0.8"/>
      </g>
     </g>
     <g id="text_1">
      <text style="font: 13px 'DejaVu Sans'; text-anchor: middle" x="51.455625" y="193.984889" transform="rotate(-0 51.455625 193.984889)">0.0</text>
     </g>
    </g>
    <g id="xtick_2">
     <g id="line2d_3">
      <path d="M 101.017054 177.10692 
L 101.017054 8.839626 
" clip-path="url(#p387c997cf3)" style="fill: none; stroke: #b0b0b0; stroke-opacity: 0.17; stroke-width: 0.8; stroke-linecap: square"/>
     </g>
     <g id="line2d_4">
      <g>
       <use xlink:href="#md52fe422ac" x="101.017054" y="177.10692" style="stroke: #000000; stroke-width: 0.8"/>
      </g>
     </g>
     <g id="text_2">
      <text style="font: 13px 'DejaVu Sans'; text-anchor: middle" x="101.017054" y="193.984889" transform="rotate(-0 101.017054 193.984889)">0.5</text>
     </g>
    </g>
    <g id="xtick_3">
     <g id="line2d_5">
      <path d="M 150.578482 177.10692 
L 150.578482 8.839626 
" clip-path="url(#p387c997cf3)" style="fill: none; stroke: #b0b0b0; stroke-opacity: 0.17; stroke-width: 0.8; stroke-linecap: square"/>
     </g>
     <g id="line2d_6">
      <g>
       <use xlink:href="#md52fe422ac" x="150.578482" y="177.10692" style="stroke: #000000; stroke-width: 0.8"/>
      </g>
     </g>
     <g id="text_3">
      <text style="font: 13px 'DejaVu Sans'; text-anchor: middle" x="150.578482" y="193.984889" transform="rotate(-0 150.578482 193.984889)">1.0</text>
     </g>
    </g>
    <g id="xtick_4">
     <g id="line2d_7">
      <path d="M 200.139911 177.10692 
L 200.139911 8.839626 
" clip-path="url(#p387c997cf3)" style="fill: none; stroke: #b0b0b0; stroke-opacity: 0.17; stroke-width: 0.8; stroke-linecap: square"/>
     </g>
     <g id="line2d_8">
      <g>
       <use xlink:href="#md52fe422ac" x="200.139911" y="177.10692" style="stroke: #000000; stroke-width: 0.8"/>
      </g>
     </g>
     <g id="text_4">
      <text style="font: 13px 'DejaVu Sans'; text-anchor: middle" x="200.139911" y="193.984889" transform="rotate(-0 200.139911 193.984889)">1.5</text>
     </g>
    </g>
    <g id="xtick_5">
     <g id="line2d_9">
      <path d="M 249.701339 177.10692 
L 249.701339 8.839626 
" clip-path="url(#p387c997cf3)" style="fill: none; stroke: #b0b0b0; stroke-opacity: 0.17; stroke-width: 0.8; stroke-linecap: square"/>
     </g>
     <g id="line2d_10">
      <g>
       <use xlink:href="#md52fe422ac" x="249.701339" y="177.10692" style="stroke: #000000; stroke-width: 0.8"/>
      </g>
     </g>
     <g id="text_5">
      <text style="font: 13px 'DejaVu Sans'; text-anchor: middle" x="249.701339" y="193.984889" transform="rotate(-0 249.701339 193.984889)">2.0</text>
     </g>
    </g>
    <g id="xtick_6">
     <g id="line2d_11">
      <path d="M 299.262768 177.10692 
L 299.262768 8.839626 
" clip-path="url(#p387c997cf3)" style="fill: none; stroke: #b0b0b0; stroke-opacity: 0.17; stroke-width: 0.8; stroke-linecap: square"/>
     </g>
     <g id="line2d_12">
      <g>
       <use xlink:href="#md52fe422ac" x="299.262768" y="177.10692" style="stroke: #000000; stroke-width: 0.8"/>
      </g>
     </g>
     <g id="text_6">
      <text style="font: 13px 'DejaVu Sans'; text-anchor: middle" x="299.262768" y="193.984889" transform="rotate(-0 299.262768 193.984889)">2.5</text>
     </g>
    </g>
    <g id="xtick_7">
     <g id="line2d_13">
      <path d="M 348.824196 177.10692 
L 348.824196 8.839626 
" clip-path="url(#p387c997cf3)" style="fill: none; stroke: #b0b0b0; stroke-opacity: 0.17; stroke-width: 0.8; stroke-linecap: square"/>
     </g>
     <g id="line2d_14">
      <g>
       <use xlink:href="#md52fe422ac" x="348.824196" y="177.10692" style="stroke: #000000; stroke-width: 0.8"/>
      </g>
     </g>
     <g id="text_7">
      <text style="font: 13px 'DejaVu Sans'; text-anchor: middle" x="348.824196" y="193.984889" transform="rotate(-0 348.824196 193.984889)">3.0</text>
     </g>
    </g>
    <g id="xtick_8">
     <g id="line2d_15">
      <path d="M 398.385625 177.10692 
L 398.385625 8.839626 
" clip-path="url(#p387c997cf3)" style="fill: none; stroke: #b0b0b0; stroke-opacity: 0.17; stroke-width: 0.8; stroke-linecap: square"/>
     </g>
     <g id="line2d_16">
      <g>
       <use xlink:href="#md52fe422ac" x="398.385625" y="177.10692" style="stroke: #000000; stroke-width: 0.8"/>
      </g>
     </g>
     <g id="text_8">
      <text style="font: 13px 'DejaVu Sans'; text-anchor: middle" x="398.385625" y="193.984889" transform="rotate(-0 398.385625 193.984889)">3.5</text>
     </g>
    </g>
    <g id="text_9">
     <!-- Tested signal yield $A/\sigma_A$ -->
     <g transform="translate(147.830625 210.568482)">
      <text>
       <tspan style="font: 13px 'DejaVu Sans'" x="0 7.940918 15.938965 22.711914 27.809082 35.807129 44.059082 48.191406 54.964355 58.576172 66.828125 75.067383 83.033691 86.645508 90.777832 98.471191 102.083008 110.081055 113.692871 121.944824 134.970215" y="-0.125">Tested signal yield /</tspan>
       <tspan style="font: oblique 13px 'DejaVu Sans'" x="126.077148 139.350098" y="-0.125">Aσ</tspan>
       <tspan style="font: oblique 9.1px 'DejaVu Sans'" x="147.589355" y="2.0078125">A</tspan>
      </text>
     </g>
    </g>
   </g>
   <g id="matplotlib.axis_2">
    <g id="ytick_1">
     <g id="line2d_17">
      <path d="M 51.455625 177.10692 
L 398.385625 177.10692 
" clip-path="url(#p387c997cf3)" style="fill: none; stroke: #b0b0b0; stroke-opacity: 0.17; stroke-width: 0.8; stroke-linecap: square"/>
     </g>
     <g id="line2d_18">
      <defs>
       <path id="m4316ecfbd0" d="M 0 0 
L -3.5 0 
" style="stroke: #000000; stroke-width: 0.8"/>
      </defs>
      <g>
       <use xlink:href="#m4316ecfbd0" x="51.455625" y="177.10692" style="stroke: #000000; stroke-width: 0.8"/>
      </g>
     </g>
     <g id="text_10">
      <text style="font: 13px 'DejaVu Sans'; text-anchor: end" x="44.455625" y="182.045904" transform="rotate(-0 44.455625 182.045904)">0.0</text>
     </g>
    </g>
    <g id="ytick_2">
     <g id="line2d_19">
      <path d="M 51.455625 144.113333 
L 398.385625 144.113333 
" clip-path="url(#p387c997cf3)" style="fill: none; stroke: #b0b0b0; stroke-opacity: 0.17; stroke-width: 0.8; stroke-linecap: square"/>
     </g>
     <g id="line2d_20">
      <g>
       <use xlink:href="#m4316ecfbd0" x="51.455625" y="144.113333" style="stroke: #000000; stroke-width: 0.8"/>
      </g>
     </g>
     <g id="text_11">
      <text style="font: 13px 'DejaVu Sans'; text-anchor: end" x="44.455625" y="149.052317" transform="rotate(-0 44.455625 149.052317)">0.2</text>
     </g>
    </g>
    <g id="ytick_3">
     <g id="line2d_21">
      <path d="M 51.455625 111.119746 
L 398.385625 111.119746 
" clip-path="url(#p387c997cf3)" style="fill: none; stroke: #b0b0b0; stroke-opacity: 0.17; stroke-width: 0.8; stroke-linecap: square"/>
     </g>
     <g id="line2d_22">
      <g>
       <use xlink:href="#m4316ecfbd0" x="51.455625" y="111.119746" style="stroke: #000000; stroke-width: 0.8"/>
      </g>
     </g>
     <g id="text_12">
      <text style="font: 13px 'DejaVu Sans'; text-anchor: end" x="44.455625" y="116.05873" transform="rotate(-0 44.455625 116.05873)">0.4</text>
     </g>
    </g>
    <g id="ytick_4">
     <g id="line2d_23">
      <path d="M 51.455625 78.126159 
L 398.385625 78.126159 
" clip-path="url(#p387c997cf3)" style="fill: none; stroke: #b0b0b0; stroke-opacity: 0.17; stroke-width: 0.8; stroke-linecap: square"/>
     </g>
     <g id="line2d_24">
      <g>
       <use xlink:href="#m4316ecfbd0" x="51.455625" y="78.126159" style="stroke: #000000; stroke-width: 0.8"/>
      </g>
     </g>
     <g id="text_13">
      <text style="font: 13px 'DejaVu Sans'; text-anchor: end" x="44.455625" y="83.065143" transform="rotate(-0 44.455625 83.065143)">0.6</text>
     </g>
    </g>
    <g id="ytick_5">
     <g id="line2d_25">
      <path d="M 51.455625 45.132571 
L 398.385625 45.132571 
" clip-path="url(#p387c997cf3)" style="fill: none; stroke: #b0b0b0; stroke-opacity: 0.17; stroke-width: 0.8; stroke-linecap: square"/>
     </g>
     <g id="line2d_26">
      <g>
       <use xlink:href="#m4316ecfbd0" x="51.455625" y="45.132571" style="stroke: #000000; stroke-width: 0.8"/>
      </g>
     </g>
     <g id="text_14">
      <text style="font: 13px 'DejaVu Sans'; text-anchor: end" x="44.455625" y="50.071556" transform="rotate(-0 44.455625 50.071556)">0.8</text>
     </g>
    </g>
    <g id="ytick_6">
     <g id="line2d_27">
      <path d="M 51.455625 12.138984 
L 398.385625 12.138984 
" clip-path="url(#p387c997cf3)" style="fill: none; stroke: #b0b0b0; stroke-opacity: 0.17; stroke-width: 0.8; stroke-linecap: square"/>
     </g>
     <g id="line2d_28">
      <g>
       <use xlink:href="#m4316ecfbd0" x="51.455625" y="12.138984" style="stroke: #000000; stroke-width: 0.8"/>
      </g>
     </g>
     <g id="text_15">
      <text style="font: 13px 'DejaVu Sans'; text-anchor: end" x="44.455625" y="17.077969" transform="rotate(-0 44.455625 17.077969)">1.0</text>
     </g>
    </g>
    <g id="text_16">
     <!-- $CL_s(A)$ -->
     <g transform="translate(17.077969 113.253273) rotate(-90)">
      <text>
       <tspan style="font: oblique 13px 'DejaVu Sans'" x="0 9.077148 26.488135" y="-0.140625">CLA</tspan>
       <tspan style="font: oblique 9.1px 'DejaVu Sans'" x="16.319824" y="1.9921875">s</tspan>
       <tspan style="font: 13px 'DejaVu Sans'" x="21.416357 35.381201" y="-0.140625">()</tspan>
      </text>
     </g>
    </g>
   </g>
   <g id="line2d_29">
    <path d="M 51.455625 12.138984 
L 71.147812 38.11727 
L 82.152269 52.258827 
L 91.419181 63.803357 
L 99.527729 73.557519 
L 107.057094 82.276435 
L 114.007278 90.002747 
L 120.957461 97.394777 
L 127.328463 103.859812 
L 133.699465 110.014582 
L 140.070466 115.84983 
L 145.862286 120.872045 
L 151.654106 125.622481 
L 157.445926 130.100534 
L 163.237745 134.30744 
L 169.029565 138.246148 
L 174.821385 141.921193 
L 180.613204 145.338541 
L 186.405024 148.505434 
L 192.196844 151.430227 
L 197.988663 154.122225 
L 204.359665 156.826601 
L 210.730667 159.275795 
L 217.101668 161.484742 
L 223.47267 163.4688 
L 230.422854 165.395015 
L 237.373037 167.092269 
L 244.902403 168.695637 
L 252.431769 170.078195 
L 260.540316 171.347151 
L 269.228046 172.484386 
L 278.494957 173.478736 
L 288.920233 174.37002 
L 300.503872 175.129416 
L 313.825057 175.766875 
L 329.462971 176.276019 
L 348.575976 176.657865 
L 373.4808 176.915699 
L 398.385625 177.030167 
L 398.385625 177.030167 
" clip-path="url(#p387c997cf3)" style="fill: none; stroke: #1a62b0; stroke-width: 3; stroke-linecap: square"/>
   </g>
   <g id="line2d_30">
    <path d="M 51.455625 160.610126 
L 398.385625 160.610126 
" clip-path="url(#p387c997cf3)" style="fill: none; stroke-dasharray: 7.4,3.2; stroke-dashoffset: 0; stroke: #d66a24; stroke-width: 2"/>
   </g>
   <g id="line2d_31">
    <path d="M 214.498216 177.10692 
L 214.498216 160.610126 
" clip-path="url(#p387c997cf3)" style="fill: none; stroke-dasharray: 2,3.3; stroke-dashoffset: 0; stroke: #d66a24; stroke-width: 2"/>
   </g>
   <g id="patch_3">
    <path d="M 51.455625 177.10692 
L 51.455625 8.839626 
" style="fill: none; stroke: #000000; stroke-width: 0.8; stroke-linejoin: miter; stroke-linecap: square"/>
   </g>
   <g id="patch_4">
    <path d="M 51.455625 177.10692 
L 398.385625 177.10692 
" style="fill: none; stroke: #000000; stroke-width: 0.8; stroke-linejoin: miter; stroke-linecap: square"/>
   </g>
   <g id="patch_5">
    <path d="M 268.920375 126.981868 
Q 242.561302 143.26953 217.153337 158.969487 
" style="fill: none; stroke: #525866; stroke-linecap: round"/>
    <path d="M 223.389078 158.407753 
L 217.153337 158.969487 
L 220.445394 153.643855 
" style="fill: none; stroke: #525866; stroke-linecap: round"/>
   </g>
   <g id="text_17">
    <!-- $A_{90}=1.645\,\sigma_A$ -->
    <g transform="translate(235.824139 121.017822)">
     <text>
      <tspan style="font: oblique 14px 'DejaVu Sans'" x="0 81.967721" y="-0.609375">Aσ</tspan>
      <tspan style="font: 9.8px 'DejaVu Sans'" x="9.577148 15.812207" y="1.6875">90</tspan>
      <tspan style="font: 14px 'DejaVu Sans'" x="25.157617 39.615625 48.522852 52.973047 61.880273 70.7875" y="-0.609375">=1.645</tspan>
      <tspan style="font: oblique 9.8px 'DejaVu Sans'" x="90.840768" y="1.6875">A</tspan>
     </text>
    </g>
   </g>
   <g id="text_18">
    <text style="font: 12px 'DejaVu Sans'; text-anchor: start" x="61.863525" y="28.366115" transform="rotate(-0 61.863525 28.366115)">Schematic Wald example, Â = 0</text>
   </g>
   <g id="text_19">
    <text style="fill: #d66a24; font: 12px 'DejaVu Sans'; text-anchor: end" x="390.455796" y="155.661088" transform="rotate(-0 390.455796 155.661088)">0.10</text>
   </g>
   <g id="PathCollection_1">
    <defs>
     <path id="m470e2e0406" d="M 0 3.872983 
C 1.027127 3.872983 2.012324 3.464901 2.738613 2.738613 
C 3.464901 2.012324 3.872983 1.027127 3.872983 0 
C 3.872983 -1.027127 3.464901 -2.012324 2.738613 -2.738613 
C 2.012324 -3.464901 1.027127 -3.872983 0 -3.872983 
C -1.027127 -3.872983 -2.012324 -3.464901 -2.738613 -2.738613 
C -3.464901 -2.012324 -3.872983 -1.027127 -3.872983 0 
C -3.872983 1.027127 -3.464901 2.012324 -2.738613 2.738613 
C -2.012324 3.464901 -1.027127 3.872983 0 3.872983 
z
" style="stroke: #d66a24"/>
    </defs>
    <g clip-path="url(#p387c997cf3)">
     <use xlink:href="#m470e2e0406" x="214.498216" y="160.610126" style="fill: #d66a24; stroke: #d66a24"/>
    </g>
   </g>
  </g>
 </g>
 <defs>
  <clipPath id="p387c997cf3">
   <rect x="51.455625" y="8.839626" width="346.93" height="168.267294"/>
  </clipPath>
 </defs>
</svg>
