<?xml version="1.0" encoding="utf-8" standalone="no"?>
<!DOCTYPE svg PUBLIC "-//W3C//DTD SVG 1.1//EN"
  "http://www.w3.org/Graphics/SVG/1.1/DTD/svg11.dtd">
<svg xmlns:xlink="http://www.w3.org/1999/xlink" width="754.31952pt" height="437.519337pt" viewBox="0 0 754.31952 437.519337" xmlns="http://www.w3.org/2000/svg" version="1.1">
 <metadata>
  <rdf:RDF xmlns:dc="http://purl.org/dc/elements/1.1/" xmlns:cc="http://creativecommons.org/ns#" xmlns:rdf="http://www.w3.org/1999/02/22-rdf-syntax-ns#">
   <cc:Work>
    <dc:type rdf:resource="http://purl.org/dc/dcmitype/StillImage"/>
    <dc:date>2026-08-06T13:32:39.594239</dc:date>
    <dc:format>image/svg+xml</dc:format>
    <dc:creator>
     <cc:Agent>
      <dc:title>Matplotlib v3.9.4, https://matplotlib.org/</dc:title>
     </cc:Agent>
    </dc:creator>
   </cc:Work>
  </rdf:RDF>
 </metadata>
 <defs>
  <style type="text/css">*{stroke-linejoin: round; stroke-linecap: butt}</style>
 </defs>
 <g id="figure_1">
  <g id="patch_1">
   <path d="M 0 437.519337
L 754.31952 437.519337
L 754.31952 0
L 0 0
z
" style="fill: #ffffff"/>
  </g>
  <g id="axes_1">
   <g id="patch_2">
    <path d="M 59.73 395.018399
L 738.061395 395.018399
L 738.061395 41.477549
L 59.73 41.477549
z
" style="fill: #ffffff"/>
   </g>
   <g id="matplotlib.axis_1">
    <g id="xtick_1">
     <g id="line2d_1">
      <path d="M 150.761486 395.018399
L 150.761486 41.477549
" clip-path="url(#p730b078fe6)" style="fill: none; stroke: #d9dee3; stroke-opacity: 0.75; stroke-width: 0.75; stroke-linecap: round"/>
     </g>
     <g id="line2d_2">
      <defs>
       <path id="m1ad07ab001" d="M 0 0
L 0 5.5
" style="stroke: #000000; stroke-width: 0.9"/>
      </defs>
      <g>
       <use xlink:href="#m1ad07ab001" x="150.761486" y="395.018399" style="stroke: #000000; stroke-width: 0.9"/>
      </g>
     </g>
     <g id="text_1">
      <text style="font: 11px 'DejaVu Sans'; text-anchor: middle" x="150.761486" y="412.37668" transform="rotate(-0 150.761486 412.37668)">50</text>
     </g>
    </g>
    <g id="xtick_2">
     <g id="line2d_3">
      <path d="M 297.586463 395.018399
L 297.586463 41.477549
" clip-path="url(#p730b078fe6)" style="fill: none; stroke: #d9dee3; stroke-opacity: 0.75; stroke-width: 0.75; stroke-linecap: round"/>
     </g>
     <g id="line2d_4">
      <g>
       <use xlink:href="#m1ad07ab001" x="297.586463" y="395.018399" style="stroke: #000000; stroke-width: 0.9"/>
      </g>
     </g>
     <g id="text_2">
      <text style="font: 11px 'DejaVu Sans'; text-anchor: middle" x="297.586463" y="412.37668" transform="rotate(-0 297.586463 412.37668)">100</text>
     </g>
    </g>
    <g id="xtick_3">
     <g id="line2d_5">
      <path d="M 444.41144 395.018399
L 444.41144 41.477549
" clip-path="url(#p730b078fe6)" style="fill: none; stroke: #d9dee3; stroke-opacity: 0.75; stroke-width: 0.75; stroke-linecap: round"/>
     </g>
     <g id="line2d_6">
      <g>
       <use xlink:href="#m1ad07ab001" x="444.41144" y="395.018399" style="stroke: #000000; stroke-width: 0.9"/>
      </g>
     </g>
     <g id="text_3">
      <text style="font: 11px 'DejaVu Sans'; text-anchor: middle" x="444.41144" y="412.37668" transform="rotate(-0 444.41144 412.37668)">150</text>
     </g>
    </g>
    <g id="xtick_4">
     <g id="line2d_7">
      <path d="M 591.236418 395.018399
L 591.236418 41.477549
" clip-path="url(#p730b078fe6)" style="fill: none; stroke: #d9dee3; stroke-opacity: 0.75; stroke-width: 0.75; stroke-linecap: round"/>
     </g>
     <g id="line2d_8">
      <g>
       <use xlink:href="#m1ad07ab001" x="591.236418" y="395.018399" style="stroke: #000000; stroke-width: 0.9"/>
      </g>
     </g>
     <g id="text_4">
      <text style="font: 11px 'DejaVu Sans'; text-anchor: middle" x="591.236418" y="412.37668" transform="rotate(-0 591.236418 412.37668)">200</text>
     </g>
    </g>
    <g id="xtick_5">
     <g id="line2d_9">
      <path d="M 738.061395 395.018399
L 738.061395 41.477549
" clip-path="url(#p730b078fe6)" style="fill: none; stroke: #d9dee3; stroke-opacity: 0.75; stroke-width: 0.75; stroke-linecap: round"/>
     </g>
     <g id="line2d_10">
      <g>
       <use xlink:href="#m1ad07ab001" x="738.061395" y="395.018399" style="stroke: #000000; stroke-width: 0.9"/>
      </g>
     </g>
     <g id="text_5">
      <text style="font: 11px 'DejaVu Sans'; text-anchor: middle" x="738.061395" y="412.37668" transform="rotate(-0 738.061395 412.37668)">250</text>
     </g>
    </g>
    <g id="xtick_6">
     <g id="line2d_11">
      <defs>
       <path id="m67568752c3" d="M 0 0
L 0 3
" style="stroke: #000000; stroke-width: 0.65"/>
      </defs>
      <g>
       <use xlink:href="#m67568752c3" x="62.6665" y="395.018399" style="stroke: #000000; stroke-width: 0.65"/>
      </g>
     </g>
    </g>
    <g id="xtick_7">
     <g id="line2d_12">
      <g>
       <use xlink:href="#m67568752c3" x="92.031495" y="395.018399" style="stroke: #000000; stroke-width: 0.65"/>
      </g>
     </g>
    </g>
    <g id="xtick_8">
     <g id="line2d_13">
      <g>
       <use xlink:href="#m67568752c3" x="121.39649" y="395.018399" style="stroke: #000000; stroke-width: 0.65"/>
      </g>
     </g>
    </g>
    <g id="xtick_9">
     <g id="line2d_14">
      <g>
       <use xlink:href="#m67568752c3" x="180.126481" y="395.018399" style="stroke: #000000; stroke-width: 0.65"/>
      </g>
     </g>
    </g>
    <g id="xtick_10">
     <g id="line2d_15">
      <g>
       <use xlink:href="#m67568752c3" x="209.491477" y="395.018399" style="stroke: #000000; stroke-width: 0.65"/>
      </g>
     </g>
    </g>
    <g id="xtick_11">
     <g id="line2d_16">
      <g>
       <use xlink:href="#m67568752c3" x="238.856472" y="395.018399" style="stroke: #000000; stroke-width: 0.65"/>
      </g>
     </g>
    </g>
    <g id="xtick_12">
     <g id="line2d_17">
      <g>
       <use xlink:href="#m67568752c3" x="268.221468" y="395.018399" style="stroke: #000000; stroke-width: 0.65"/>
      </g>
     </g>
    </g>
    <g id="xtick_13">
     <g id="line2d_18">
      <g>
       <use xlink:href="#m67568752c3" x="326.951459" y="395.018399" style="stroke: #000000; stroke-width: 0.65"/>
      </g>
     </g>
    </g>
    <g id="xtick_14">
     <g id="line2d_19">
      <g>
       <use xlink:href="#m67568752c3" x="356.316454" y="395.018399" style="stroke: #000000; stroke-width: 0.65"/>
      </g>
     </g>
    </g>
    <g id="xtick_15">
     <g id="line2d_20">
      <g>
       <use xlink:href="#m67568752c3" x="385.68145" y="395.018399" style="stroke: #000000; stroke-width: 0.65"/>
      </g>
     </g>
    </g>
    <g id="xtick_16">
     <g id="line2d_21">
      <g>
       <use xlink:href="#m67568752c3" x="415.046445" y="395.018399" style="stroke: #000000; stroke-width: 0.65"/>
      </g>
     </g>
    </g>
    <g id="xtick_17">
     <g id="line2d_22">
      <g>
       <use xlink:href="#m67568752c3" x="473.776436" y="395.018399" style="stroke: #000000; stroke-width: 0.65"/>
      </g>
     </g>
    </g>
    <g id="xtick_18">
     <g id="line2d_23">
      <g>
       <use xlink:href="#m67568752c3" x="503.141431" y="395.018399" style="stroke: #000000; stroke-width: 0.65"/>
      </g>
     </g>
    </g>
    <g id="xtick_19">
     <g id="line2d_24">
      <g>
       <use xlink:href="#m67568752c3" x="532.506427" y="395.018399" style="stroke: #000000; stroke-width: 0.65"/>
      </g>
     </g>
    </g>
    <g id="xtick_20">
     <g id="line2d_25">
      <g>
       <use xlink:href="#m67568752c3" x="561.871422" y="395.018399" style="stroke: #000000; stroke-width: 0.65"/>
      </g>
     </g>
    </g>
    <g id="xtick_21">
     <g id="line2d_26">
      <g>
       <use xlink:href="#m67568752c3" x="620.601413" y="395.018399" style="stroke: #000000; stroke-width: 0.65"/>
      </g>
     </g>
    </g>
    <g id="xtick_22">
     <g id="line2d_27">
      <g>
       <use xlink:href="#m67568752c3" x="649.966409" y="395.018399" style="stroke: #000000; stroke-width: 0.65"/>
      </g>
     </g>
    </g>
    <g id="xtick_23">
     <g id="line2d_28">
      <g>
       <use xlink:href="#m67568752c3" x="679.331404" y="395.018399" style="stroke: #000000; stroke-width: 0.65"/>
      </g>
     </g>
    </g>
    <g id="xtick_24">
     <g id="line2d_29">
      <g>
       <use xlink:href="#m67568752c3" x="708.6964" y="395.018399" style="stroke: #000000; stroke-width: 0.65"/>
      </g>
     </g>
    </g>
    <g id="text_6">
     <!-- Dark-photon mass $m_{A^\prime}$ (MeV) -->
     <g transform="translate(301.223198 428.924337)">
      <text>
       <tspan style="font: 13.5px 'DejaVu Sans'" x="0 10.395264 18.667969 24.218262 32.036133 36.907471 45.476807 54.032959 62.29248 67.585693 75.845215 84.401367 88.692627 101.843262 110.115967 117.149414 124.182861 151.245867 155.537127 160.803973 172.451678 180.757342 189.992449" y="-0.359375">Dark-photon mass  (MeV)</tspan>
       <tspan style="font: oblique 13.5px 'DejaVu Sans'" x="128.474121" y="-0.359375">m</tspan>
       <tspan style="font: oblique 9.45px 'DejaVu Sans'" x="141.624756" y="1.9375">A</tspan>
       <tspan style="font: 6.615px 'cmsy10'" x="148.776607" y="-1.8140625000000004">0</tspan>
      </text>
     </g>
    </g>
   </g>
   <g id="matplotlib.axis_2">
    <g id="ytick_1">
     <g id="line2d_30">
      <path d="M 59.73 378.387243
L 738.061395 378.387243
" clip-path="url(#p730b078fe6)" style="fill: none; stroke: #d9dee3; stroke-opacity: 0.75; stroke-width: 0.75; stroke-linecap: round"/>
     </g>
     <g id="line2d_31">
      <defs>
       <path id="m0aeb98068c" d="M 0 0
L -5.5 0
" style="stroke: #000000; stroke-width: 0.9"/>
      </defs>
      <g>
       <use xlink:href="#m0aeb98068c" x="59.73" y="378.387243" style="stroke: #000000; stroke-width: 0.9"/>
      </g>
     </g>
     <g id="text_7">
      <!-- $\mathdefault{10^{-7}}$ -->
      <g transform="translate(24.88 382.566384)">
       <text>
        <tspan style="font: 11px 'DejaVu Sans'" x="0 6.998535" y="-0.17812500000000142">10</tspan>
        <tspan style="font: 7.7px 'DejaVu Sans'" x="14.102344 20.554102" y="-4.389062500000001">−7</tspan>
       </text>
      </g>
     </g>
    </g>
    <g id="ytick_2">
     <g id="line2d_32">
      <path d="M 59.73 250.389521
L 738.061395 250.389521
" clip-path="url(#p730b078fe6)" style="fill: none; stroke: #d9dee3; stroke-opacity: 0.75; stroke-width: 0.75; stroke-linecap: round"/>
     </g>
     <g id="line2d_33">
      <g>
       <use xlink:href="#m0aeb98068c" x="59.73" y="250.389521" style="stroke: #000000; stroke-width: 0.9"/>
      </g>
     </g>
     <g id="text_8">
      <!-- $\mathdefault{10^{-6}}$ -->
      <g transform="translate(24.88 254.568661)">
       <text>
        <tspan style="font: 11px 'DejaVu Sans'" x="0 6.998535" y="-0.06875000000000142">10</tspan>
        <tspan style="font: 7.7px 'DejaVu Sans'" x="14.102344 20.554102" y="-4.279687500000001">−6</tspan>
       </text>
      </g>
     </g>
    </g>
    <g id="ytick_3">
     <g id="line2d_34">
      <path d="M 59.73 122.391798
L 738.061395 122.391798
" clip-path="url(#p730b078fe6)" style="fill: none; stroke: #d9dee3; stroke-opacity: 0.75; stroke-width: 0.75; stroke-linecap: round"/>
     </g>
     <g id="line2d_35">
      <g>
       <use xlink:href="#m0aeb98068c" x="59.73" y="122.391798" style="stroke: #000000; stroke-width: 0.9"/>
      </g>
     </g>
     <g id="text_9">
      <!-- $\mathdefault{10^{-5}}$ -->
      <g transform="translate(24.88 126.570939)">
       <text>
        <tspan style="font: 11px 'DejaVu Sans'" x="0 6.998535" y="-0.17812500000000142">10</tspan>
        <tspan style="font: 7.7px 'DejaVu Sans'" x="14.102344 20.554102" y="-4.389062500000001">−5</tspan>
       </text>
      </g>
     </g>
    </g>
    <g id="ytick_4">
     <g id="line2d_36">
      <path d="M 59.73 390.791504
L 738.061395 390.791504
" clip-path="url(#p730b078fe6)" style="fill: none; stroke: #edf0f2; stroke-opacity: 0.55; stroke-width: 0.45; stroke-linecap: round"/>
     </g>
     <g id="line2d_37">
      <defs>
       <path id="m0565ac39f4" d="M 0 0
L -3 0
" style="stroke: #000000; stroke-width: 0.65"/>
      </defs>
      <g>
       <use xlink:href="#m0565ac39f4" x="59.73" y="390.791504" style="stroke: #000000; stroke-width: 0.65"/>
      </g>
     </g>
    </g>
    <g id="ytick_5">
     <g id="line2d_38">
      <path d="M 59.73 384.244098
L 738.061395 384.244098
" clip-path="url(#p730b078fe6)" style="fill: none; stroke: #edf0f2; stroke-opacity: 0.55; stroke-width: 0.45; stroke-linecap: round"/>
     </g>
     <g id="line2d_39">
      <g>
       <use xlink:href="#m0565ac39f4" x="59.73" y="384.244098" style="stroke: #000000; stroke-width: 0.65"/>
      </g>
     </g>
    </g>
    <g id="ytick_6">
     <g id="line2d_40">
      <path d="M 59.73 339.85609
L 738.061395 339.85609
" clip-path="url(#p730b078fe6)" style="fill: none; stroke: #edf0f2; stroke-opacity: 0.55; stroke-width: 0.45; stroke-linecap: round"/>
     </g>
     <g id="line2d_41">
      <g>
       <use xlink:href="#m0565ac39f4" x="59.73" y="339.85609" style="stroke: #000000; stroke-width: 0.65"/>
      </g>
     </g>
    </g>
    <g id="ytick_7">
     <g id="line2d_42">
      <path d="M 59.73 317.316809
L 738.061395 317.316809
" clip-path="url(#p730b078fe6)" style="fill: none; stroke: #edf0f2; stroke-opacity: 0.55; stroke-width: 0.45; stroke-linecap: round"/>
     </g>
     <g id="line2d_43">
      <g>
       <use xlink:href="#m0565ac39f4" x="59.73" y="317.316809" style="stroke: #000000; stroke-width: 0.65"/>
      </g>
     </g>
    </g>
    <g id="ytick_8">
     <g id="line2d_44">
      <path d="M 59.73 301.324936
L 738.061395 301.324936
" clip-path="url(#p730b078fe6)" style="fill: none; stroke: #edf0f2; stroke-opacity: 0.55; stroke-width: 0.45; stroke-linecap: round"/>
     </g>
     <g id="line2d_45">
      <g>
       <use xlink:href="#m0565ac39f4" x="59.73" y="301.324936" style="stroke: #000000; stroke-width: 0.65"/>
      </g>
     </g>
    </g>
    <g id="ytick_9">
     <g id="line2d_46">
      <path d="M 59.73 288.920675
L 738.061395 288.920675
" clip-path="url(#p730b078fe6)" style="fill: none; stroke: #edf0f2; stroke-opacity: 0.55; stroke-width: 0.45; stroke-linecap: round"/>
     </g>
     <g id="line2d_47">
      <g>
       <use xlink:href="#m0565ac39f4" x="59.73" y="288.920675" style="stroke: #000000; stroke-width: 0.65"/>
      </g>
     </g>
    </g>
    <g id="ytick_10">
     <g id="line2d_48">
      <path d="M 59.73 278.785655
L 738.061395 278.785655
" clip-path="url(#p730b078fe6)" style="fill: none; stroke: #edf0f2; stroke-opacity: 0.55; stroke-width: 0.45; stroke-linecap: round"/>
     </g>
     <g id="line2d_49">
      <g>
       <use xlink:href="#m0565ac39f4" x="59.73" y="278.785655" style="stroke: #000000; stroke-width: 0.65"/>
      </g>
     </g>
    </g>
    <g id="ytick_11">
     <g id="line2d_50">
      <path d="M 59.73 270.216619
L 738.061395 270.216619
" clip-path="url(#p730b078fe6)" style="fill: none; stroke: #edf0f2; stroke-opacity: 0.55; stroke-width: 0.45; stroke-linecap: round"/>
     </g>
     <g id="line2d_51">
      <g>
       <use xlink:href="#m0565ac39f4" x="59.73" y="270.216619" style="stroke: #000000; stroke-width: 0.65"/>
      </g>
     </g>
    </g>
    <g id="ytick_12">
     <g id="line2d_52">
      <path d="M 59.73 262.793782
L 738.061395 262.793782
" clip-path="url(#p730b078fe6)" style="fill: none; stroke: #edf0f2; stroke-opacity: 0.55; stroke-width: 0.45; stroke-linecap: round"/>
     </g>
     <g id="line2d_53">
      <g>
       <use xlink:href="#m0565ac39f4" x="59.73" y="262.793782" style="stroke: #000000; stroke-width: 0.65"/>
      </g>
     </g>
    </g>
    <g id="ytick_13">
     <g id="line2d_54">
      <path d="M 59.73 256.246375
L 738.061395 256.246375
" clip-path="url(#p730b078fe6)" style="fill: none; stroke: #edf0f2; stroke-opacity: 0.55; stroke-width: 0.45; stroke-linecap: round"/>
     </g>
     <g id="line2d_55">
      <g>
       <use xlink:href="#m0565ac39f4" x="59.73" y="256.246375" style="stroke: #000000; stroke-width: 0.65"/>
      </g>
     </g>
    </g>
    <g id="ytick_14">
     <g id="line2d_56">
      <path d="M 59.73 211.858367
L 738.061395 211.858367
" clip-path="url(#p730b078fe6)" style="fill: none; stroke: #edf0f2; stroke-opacity: 0.55; stroke-width: 0.45; stroke-linecap: round"/>
     </g>
     <g id="line2d_57">
      <g>
       <use xlink:href="#m0565ac39f4" x="59.73" y="211.858367" style="stroke: #000000; stroke-width: 0.65"/>
      </g>
     </g>
    </g>
    <g id="ytick_15">
     <g id="line2d_58">
      <path d="M 59.73 189.319087
L 738.061395 189.319087
" clip-path="url(#p730b078fe6)" style="fill: none; stroke: #edf0f2; stroke-opacity: 0.55; stroke-width: 0.45; stroke-linecap: round"/>
     </g>
     <g id="line2d_59">
      <g>
       <use xlink:href="#m0565ac39f4" x="59.73" y="189.319087" style="stroke: #000000; stroke-width: 0.65"/>
      </g>
     </g>
    </g>
    <g id="ytick_16">
     <g id="line2d_60">
      <path d="M 59.73 173.327213
L 738.061395 173.327213
" clip-path="url(#p730b078fe6)" style="fill: none; stroke: #edf0f2; stroke-opacity: 0.55; stroke-width: 0.45; stroke-linecap: round"/>
     </g>
     <g id="line2d_61">
      <g>
       <use xlink:href="#m0565ac39f4" x="59.73" y="173.327213" style="stroke: #000000; stroke-width: 0.65"/>
      </g>
     </g>
    </g>
    <g id="ytick_17">
     <g id="line2d_62">
      <path d="M 59.73 160.922952
L 738.061395 160.922952
" clip-path="url(#p730b078fe6)" style="fill: none; stroke: #edf0f2; stroke-opacity: 0.55; stroke-width: 0.45; stroke-linecap: round"/>
     </g>
     <g id="line2d_63">
      <g>
       <use xlink:href="#m0565ac39f4" x="59.73" y="160.922952" style="stroke: #000000; stroke-width: 0.65"/>
      </g>
     </g>
    </g>
    <g id="ytick_18">
     <g id="line2d_64">
      <path d="M 59.73 150.787933
L 738.061395 150.787933
" clip-path="url(#p730b078fe6)" style="fill: none; stroke: #edf0f2; stroke-opacity: 0.55; stroke-width: 0.45; stroke-linecap: round"/>
     </g>
     <g id="line2d_65">
      <g>
       <use xlink:href="#m0565ac39f4" x="59.73" y="150.787933" style="stroke: #000000; stroke-width: 0.65"/>
      </g>
     </g>
    </g>
    <g id="ytick_19">
     <g id="line2d_66">
      <path d="M 59.73 142.218896
L 738.061395 142.218896
" clip-path="url(#p730b078fe6)" style="fill: none; stroke: #edf0f2; stroke-opacity: 0.55; stroke-width: 0.45; stroke-linecap: round"/>
     </g>
     <g id="line2d_67">
      <g>
       <use xlink:href="#m0565ac39f4" x="59.73" y="142.218896" style="stroke: #000000; stroke-width: 0.65"/>
      </g>
     </g>
    </g>
    <g id="ytick_20">
     <g id="line2d_68">
      <path d="M 59.73 134.796059
L 738.061395 134.796059
" clip-path="url(#p730b078fe6)" style="fill: none; stroke: #edf0f2; stroke-opacity: 0.55; stroke-width: 0.45; stroke-linecap: round"/>
     </g>
     <g id="line2d_69">
      <g>
       <use xlink:href="#m0565ac39f4" x="59.73" y="134.796059" style="stroke: #000000; stroke-width: 0.65"/>
      </g>
     </g>
    </g>
    <g id="ytick_21">
     <g id="line2d_70">
      <path d="M 59.73 128.248653
L 738.061395 128.248653
" clip-path="url(#p730b078fe6)" style="fill: none; stroke: #edf0f2; stroke-opacity: 0.55; stroke-width: 0.45; stroke-linecap: round"/>
     </g>
     <g id="line2d_71">
      <g>
       <use xlink:href="#m0565ac39f4" x="59.73" y="128.248653" style="stroke: #000000; stroke-width: 0.65"/>
      </g>
     </g>
    </g>
    <g id="ytick_22">
     <g id="line2d_72">
      <path d="M 59.73 83.860644
L 738.061395 83.860644
" clip-path="url(#p730b078fe6)" style="fill: none; stroke: #edf0f2; stroke-opacity: 0.55; stroke-width: 0.45; stroke-linecap: round"/>
     </g>
     <g id="line2d_73">
      <g>
       <use xlink:href="#m0565ac39f4" x="59.73" y="83.860644" style="stroke: #000000; stroke-width: 0.65"/>
      </g>
     </g>
    </g>
    <g id="ytick_23">
     <g id="line2d_74">
      <path d="M 59.73 61.321364
L 738.061395 61.321364
" clip-path="url(#p730b078fe6)" style="fill: none; stroke: #edf0f2; stroke-opacity: 0.55; stroke-width: 0.45; stroke-linecap: round"/>
     </g>
     <g id="line2d_75">
      <g>
       <use xlink:href="#m0565ac39f4" x="59.73" y="61.321364" style="stroke: #000000; stroke-width: 0.65"/>
      </g>
     </g>
    </g>
    <g id="ytick_24">
     <g id="line2d_76">
      <path d="M 59.73 45.32949
L 738.061395 45.32949
" clip-path="url(#p730b078fe6)" style="fill: none; stroke: #edf0f2; stroke-opacity: 0.55; stroke-width: 0.45; stroke-linecap: round"/>
     </g>
     <g id="line2d_77">
      <g>
       <use xlink:href="#m0565ac39f4" x="59.73" y="45.32949" style="stroke: #000000; stroke-width: 0.65"/>
      </g>
     </g>
    </g>
    <g id="text_10">
     <!-- 90% CL upper limit on $\epsilon^2$ -->
     <g transform="translate(18.045 302.690474) rotate(-90)">
      <text>
       <tspan style="font: 13.5px 'DejaVu Sans'" x="0 8.589111 17.178223 30.005859 34.297119 43.723389 51.244629 55.535889 64.092041 72.661377 81.230713 89.536377 95.08667 99.37793 103.128662 106.879395 120.030029 123.780762 129.073975 133.365234 141.624756 150.180908" y="-0.3671875">90% CL upper limit on </tspan>
       <tspan style="font: oblique 13.5px 'DejaVu Sans'" x="154.472168" y="-0.3671875">ε</tspan>
       <tspan style="font: 9.45px 'DejaVu Sans'" x="162.420798" y="-5.7265625">2</tspan>
      </text>
     </g>
    </g>
   </g>
   <g id="line2d_78">
    <path d="M 624.468046 395.018399
L 624.468046 41.477549
" clip-path="url(#p730b078fe6)" style="fill: none; stroke-dasharray: 2,2.3; stroke-dashoffset: 0; stroke: #8b929a; stroke-opacity: 0.78"/>
   </g>
   <g id="line2d_79">
    <path d="M 63.374196 188.319102
L 64.927604 180.46094
L 66.478076 178.603532
L 68.025611 186.758847
L 71.117745 190.134101
L 74.204006 199.147873
L 77.287331 213.890417
L 78.82312 218.943503
L 80.361846 218.350198
L 81.897635 219.371641
L 83.430488 215.422144
L 84.963341 205.831003
L 86.493257 197.636559
L 88.023173 191.513426
L 89.553089 188.573848
L 92.604112 186.089686
L 94.131092 182.875656
L 95.661008 180.472795
L 97.199734 191.238801
L 98.741396 200.722681
L 101.845276 234.02283
L 103.407494 245.996998
L 104.975585 256.692985
L 106.549549 258.429055
L 108.129386 250.289506
L 111.306678 243.586668
L 112.904134 248.537256
L 114.510399 245.623579
L 116.119601 235.568864
L 119.35856 224.166959
L 120.988317 223.170316
L 122.623947 216.343227
L 124.262514 210.701976
L 125.906954 205.771446
L 127.551394 204.278117
L 129.201706 208.613316
L 130.852019 208.590413
L 132.505268 211.365258
L 134.161454 214.992746
L 135.820576 212.94171
L 137.482635 208.46834
L 139.14763 213.434984
L 140.815562 215.487103
L 144.160235 240.716748
L 145.83404 265.38141
L 147.513717 281.293438
L 149.196332 290.954326
L 150.878946 294.263354
L 152.567433 289.739191
L 155.920916 281.563885
L 157.588847 273.604395
L 159.24797 261.339967
L 160.901219 266.86197
L 162.542722 265.697382
L 164.178352 258.671935
L 165.80811 255.407331
L 167.429057 245.868827
L 169.041196 232.564276
L 170.647461 223.685007
L 172.247853 220.394067
L 173.839436 218.567097
L 175.425146 219.270754
L 176.999109 220.445011
L 178.570137 219.995809
L 180.132354 215.959194
L 181.688699 214.710088
L 183.239171 217.354573
L 184.78377 222.675325
L 186.328368 233.630095
L 187.870031 250.356173
L 190.938673 263.095892
L 192.471525 264.764799
L 193.998505 264.933203
L 195.522548 261.365734
L 197.043655 264.372006
L 198.558889 259.494237
L 200.074123 262.104465
L 201.58642 263.690759
L 203.089908 260.230314
L 204.596332 251.022809
L 206.096883 246.909129
L 207.594498 243.754119
L 209.089176 243.117057
L 210.583855 240.78811
L 212.07266 255.386397
L 213.570275 261.788673
L 216.600742 268.96398
L 218.130658 267.726594
L 219.672321 270.037376
L 221.219856 274.7736
L 222.779137 273.293853
L 224.350165 268.205802
L 225.930001 253.125637
L 227.521584 235.267636
L 229.121976 214.831139
L 230.734115 202.891574
L 232.355062 200.936251
L 233.987756 205.407356
L 235.632196 214.548891
L 237.285445 219.027321
L 238.95044 220.18205
L 240.627181 230.714015
L 242.306859 247.362606
L 245.63685 291.311993
L 247.290099 303.333857
L 248.934539 307.46937
L 250.570169 303.990906
L 252.199926 301.468388
L 253.820874 290.87749
L 255.430076 275.823784
L 257.033404 263.814882
L 258.63086 264.498155
L 260.21657 266.057767
L 261.796407 270.087801
L 263.373307 269.422173
L 264.935525 267.090416
L 266.488933 259.819302
L 268.039405 258.357369
L 269.581067 251.451877
L 271.11392 239.732556
L 272.652646 231.790372
L 274.194308 224.509977
L 275.741843 222.848755
L 277.292315 227.338072
L 278.842787 236.870573
L 280.402068 249.305286
L 281.961349 262.88172
L 283.52944 269.120449
L 285.097531 264.790107
L 288.245458 246.050446
L 289.828231 237.730388
L 291.408068 233.907739
L 292.999651 235.831891
L 294.588297 234.841483
L 296.185753 238.676923
L 297.792018 251.467593
L 299.377728 261.263928
L 300.992803 278.348274
L 302.607877 297.971988
L 304.222952 309.736499
L 305.838027 313.736159
L 307.453102 313.28893
L 309.068176 308.302904
L 310.683251 305.067418
L 312.298326 300.609248
L 313.913401 295.609366
L 315.55784 288.745782
L 317.172915 278.934548
L 318.78799 271.393524
L 320.43243 268.4148
L 322.047504 267.651255
L 323.691944 268.183619
L 325.336384 271.802537
L 326.951459 278.61021
L 330.240338 289.337605
L 331.884778 288.731655
L 333.529218 286.796002
L 335.173657 281.550642
L 336.818097 278.376871
L 338.462537 278.345415
L 341.780781 282.742991
L 345.099026 278.446964
L 346.743466 282.728119
L 348.41727 289.022414
L 350.091075 296.492842
L 351.735515 301.946412
L 353.40932 303.169306
L 355.083124 301.501836
L 356.756929 296.124852
L 360.104539 279.845151
L 361.778343 266.552961
L 363.452148 257.02647
L 365.155318 249.096296
L 366.829122 242.877798
L 368.502927 240.716748
L 370.206097 242.981761
L 371.879902 246.243072
L 373.583071 250.529693
L 375.256876 257.709519
L 376.960046 261.211222
L 378.663216 265.484512
L 380.366385 267.496839
L 382.069555 271.319685
L 383.772725 273.239222
L 385.475895 271.253943
L 387.179064 265.481965
L 388.882234 255.381745
L 390.585404 248.362449
L 392.288574 244.521334
L 394.021108 245.911534
L 395.724278 250.688991
L 397.456813 254.403467
L 399.159982 252.279953
L 400.892517 252.113844
L 402.625052 254.155924
L 404.328222 258.854144
L 406.060756 265.203435
L 407.793291 269.213909
L 409.525826 267.895644
L 411.258361 265.283488
L 412.990895 265.376321
L 414.752795 270.130282
L 418.217865 290.922304
L 419.950399 300.583052
L 421.712299 311.934729
L 423.444834 321.261397
L 425.206733 325.549279
L 426.968633 326.669674
L 428.701168 323.245416
L 432.224967 310.524239
L 433.986867 302.894406
L 435.748767 292.790089
L 437.510667 281.98852
L 439.272566 274.32595
L 441.034466 272.401273
L 442.825731 281.70083
L 444.58763 297.653488
L 446.378895 312.603931
L 448.140795 314.02152
L 449.93206 305.167455
L 451.693959 291.932211
L 453.485224 281.032434
L 455.276489 280.965083
L 457.067753 281.319866
L 458.859018 280.167304
L 460.650283 273.315713
L 464.232812 253.99388
L 466.024077 246.769141
L 467.815342 244.943982
L 469.635972 248.635706
L 471.427236 254.310142
L 473.218501 260.830764
L 475.039131 264.740763
L 476.85976 273.087761
L 478.651025 284.58608
L 480.471655 292.554284
L 482.292285 297.456374
L 485.933544 309.314486
L 487.754174 312.512527
L 489.574803 316.36537
L 491.395433 314.780791
L 493.216063 312.170914
L 495.066058 309.799085
L 496.886687 303.353548
L 498.736682 297.942995
L 500.557312 288.752062
L 506.077931 256.537778
L 507.927926 248.286057
L 509.77792 241.422184
L 511.627915 239.722455
L 513.47791 239.995507
L 515.327904 243.649432
L 517.207264 246.844497
L 519.057259 248.843832
L 522.786613 249.07432
L 524.636608 249.360349
L 528.365962 266.032169
L 530.245322 275.059158
L 532.124682 286.134688
L 533.974677 293.135756
L 535.854036 297.856064
L 537.733396 300.027412
L 539.642121 301.16079
L 543.40084 310.966213
L 545.2802 312.884446
L 549.068284 317.392457
L 550.947644 320.344025
L 552.856369 322.909787
L 554.765093 324.730433
L 556.673818 322.92473
L 558.553178 314.884008
L 560.461902 304.281171
L 562.370627 289.148383
L 564.279352 283.240864
L 566.188077 288.48863
L 568.126166 300.612741
L 570.034891 307.972099
L 571.943616 306.785963
L 575.79043 294.24191
L 577.72852 290.035776
L 579.637245 288.083726
L 581.575334 288.193014
L 583.513424 287.338751
L 585.451514 283.288681
L 587.389603 276.931964
L 589.327693 274.617271
L 591.265783 270.528003
L 593.203872 263.535487
L 595.141962 255.594748
L 597.080052 251.54845
L 599.047507 252.791136
L 600.985596 257.681025
L 602.953051 263.497954
L 604.891141 268.794612
L 606.82923 270.316329
L 608.796685 270.412131
L 610.734775 272.474477
L 612.702229 277.750855
L 614.640319 284.064098
L 616.607774 284.637506
L 618.545864 282.060928
L 620.513318 271.834892
L 622.451408 263.263033
L 624.418863 258.849345
L 626.386317 263.322965
L 628.324407 269.229713
L 628.735517 339.435161
L 629.029167 346.658773
L 629.146627 346.042057
L 629.733927 328.365
L 629.880752 327.741266
L 630.556147 341.242842
L 630.732337 338.901496
L 631.495826 297.025979
L 631.906936 289.211421
L 632.083126 288.383745
L 632.318046 291.212436
L 633.198996 316.232623
L 633.433916 315.086753
L 634.138676 308.824468
L 634.373596 309.037172
L 634.637881 309.025868
L 634.872801 310.381117
L 635.137086 314.20493
L 636.429146 340.497734
L 636.693431 343.326351
L 636.957716 344.764216
L 637.222001 345.439198
L 637.515651 349.840964
L 638.073585 364.602751
L 638.367235 368.445008
L 638.63152 367.411388
L 639.51247 345.931725
L 639.80612 344.720055
L 640.09977 345.708769
L 640.716435 349.43648
L 641.010085 348.658805
L 641.3331 351.176116
L 641.656115 347.675627
L 641.949765 339.909202
L 642.27278 328.044871
L 642.56643 322.358312
L 642.889445 322.70506
L 643.21246 328.506328
L 643.887855 347.204541
L 644.21087 348.020222
L 644.533884 342.732899
L 645.209279 323.219727
L 645.561659 323.290386
L 645.914039 316.015742
L 646.237054 304.369662
L 646.589434 300.9854
L 646.941814 304.205376
L 647.323559 311.656597
L 647.675939 323.029386
L 648.028319 342.460259
L 648.762444 352.410541
L 649.144189 351.448944
L 649.525934 343.696301
L 650.289424 318.277509
L 650.671169 310.899134
L 651.052913 310.352515
L 651.434658 304.346178
L 651.845768 311.8574
L 652.256878 311.209954
L 653.049733 328.902106
L 653.460843 340.763092
L 653.871953 356.195369
L 654.283063 360.651815
L 654.723538 367.858217
L 655.134648 363.785835
L 655.545758 361.0211
L 656.837818 327.347371
L 657.278293 328.033695
L 657.718767 324.044731
L 658.159242 333.837687
L 658.599717 335.09528
L 659.040192 346.113042
L 659.480667 346.642917
L 659.950507 352.574871
L 660.390982 348.121935
L 660.860822 341.889121
L 661.301297 326.471135
L 661.771137 320.996719
L 662.240977 312.417313
L 662.710817 321.864524
L 663.151292 321.955487
L 663.621132 333.142782
L 664.090971 331.364388
L 664.590176 335.443567
L 665.060016 328.607388
L 665.529856 334.089958
L 666.029061 331.132009
L 666.498901 340.873427
L 666.998106 338.409636
L 667.467946 339.336141
L 668.965561 289.201963
L 669.464766 287.224105
L 669.963971 284.305173
L 670.463175 300.347568
L 670.96238 307.528834
L 671.461585 329.713797
L 671.990155 333.492039
L 672.48936 345.973743
L 673.517135 333.032841
L 674.045705 324.096498
L 674.54491 324.671864
L 675.07348 317.441217
L 675.60205 323.365376
L 676.13062 315.837334
L 676.65919 316.003706
L 677.187759 306.669702
L 677.716329 307.241101
L 678.244899 315.443445
L 678.773469 327.216382
L 679.331404 336.876769
L 679.859974 338.938474
L 680.388544 336.384128
L 680.946479 328.367242
L 681.475049 318.404522
L 682.590919 306.811815
L 683.119489 308.158874
L 683.677423 299.003557
L 684.235358 310.474602
L 684.793293 306.802582
L 685.351228 311.768538
L 685.909163 313.105069
L 686.467098 315.809296
L 687.054398 326.784547
L 687.612333 320.747323
L 688.170268 327.837169
L 688.757568 319.074763
L 689.344868 315.823314
L 689.902802 311.088976
L 690.490102 309.810468
L 691.048037 312.0005
L 691.635337 321.518275
L 692.222637 333.917786
L 692.809937 341.93977
L 693.397237 344.297519
L 693.984537 341.755012
L 694.571837 335.709093
L 695.159137 331.50036
L 696.363101 326.524044
L 698.154366 303.600876
L 698.771031 302.442479
L 699.358331 304.902098
L 699.974996 311.183058
L 701.208326 326.330167
L 701.824991 325.930264
L 702.441656 323.588503
L 703.05832 318.866679
L 703.674985 315.633217
L 704.29165 310.219136
L 706.787675 276.776801
L 707.433705 273.668801
L 708.05037 277.085931
L 708.6964 284.946559
L 709.959094 306.708442
L 710.605124 316.081966
L 711.897184 329.965969
L 712.513849 335.508096
L 713.159879 337.293836
L 713.835274 337.11906
L 714.481304 333.007125
L 715.127334 326.603455
L 716.419393 306.170979
L 717.065423 302.623741
L 717.740818 304.144057
L 719.062243 311.735716
L 719.708273 313.095298
L 720.383668 313.132433
L 721.029698 311.269531
L 721.705093 312.064375
L 722.380487 310.436436
L 723.055882 312.931267
L 723.731277 313.702751
L 724.406672 315.317775
L 725.082067 317.783132
L 725.757462 321.528816
L 726.432857 327.752414
L 727.108252 335.111954
L 727.783647 341.104481
L 728.459041 345.790031
L 729.134436 343.295578
L 729.839196 336.6809
L 731.894746 301.085338
L 732.599506 299.414042
L 733.274901 303.475351
L 733.979661 309.172913
L 734.684421 310.636957
L 735.359815 309.645527
L 736.064575 312.448394
L 736.769335 311.221482
L 737.474095 308.026231
L 737.474095 308.026231
" clip-path="url(#p730b078fe6)" style="fill: none; stroke: #c98200; stroke-width: 2.6; stroke-linecap: round"/>
   </g>
   <g id="patch_3">
    <path d="M 59.73 395.018399
L 59.73 41.477549
" style="fill: none; stroke: #5d646b; stroke-width: 0.9; stroke-linejoin: miter; stroke-linecap: square"/>
   </g>
   <g id="patch_4">
    <path d="M 59.73 395.018399
L 738.061395 395.018399
" style="fill: none; stroke: #5d646b; stroke-width: 0.9; stroke-linejoin: miter; stroke-linecap: square"/>
   </g>
   <g id="line2d_80">
    <path d="M 59.73 127.688847
L 62.6665 106.745343
L 65.602999 68.651077
L 68.539499 93.38918
L 71.475998 144.698416
L 74.412498 150.57775
L 77.348997 141.534307
L 80.285497 131.393813
L 83.221996 136.768126
L 86.158496 138.178472
L 89.094995 132.097388
L 92.031495 121.120966
L 94.967995 130.854932
L 97.904494 146.346774
L 100.840994 160.488671
L 103.777493 166.741711
L 106.713993 169.189571
L 109.650492 156.667585
L 112.586992 137.776914
L 115.523491 111.373559
L 118.459991 115.633896
L 121.39649 123.969978
L 124.33299 145.899854
L 127.26949 160.073284
L 130.205989 169.835965
L 133.142489 173.165121
L 136.078988 164.11916
L 139.015488 170.409241
L 144.888487 151.579627
L 147.824986 146.254277
L 150.761486 129.444373
L 153.697985 123.515566
L 156.634485 133.634803
L 159.570985 147.121049
L 162.507484 166.368186
L 165.443984 188.694374
L 171.316983 207.775388
L 174.253482 210.517179
L 177.189982 211.925674
L 180.126481 210.17017
L 183.062981 203.408902
L 185.99948 188.616733
L 188.93598 165.444514
L 191.87248 144.371488
L 194.808979 131.568185
L 197.745479 134.087508
L 200.681978 145.552298
L 203.618478 167.361059
L 206.554977 204.816261
L 209.491477 225.397901
L 212.427976 236.120599
L 215.364476 243.40063
L 218.300975 243.179425
L 221.237475 236.181816
L 224.173975 226.58399
L 230.046974 192.682167
L 232.983473 177.734086
L 235.919973 168.309851
L 238.856472 168.998196
L 241.792972 172.365158
L 244.729471 184.462149
L 247.665971 203.627818
L 250.60247 217.877187
L 253.53897 218.597952
L 256.47547 222.112545
L 259.411969 224.856061
L 262.348469 222.020671
L 265.284968 216.051185
L 268.221468 202.954155
L 271.157967 191.951877
L 274.094467 188.827165
L 277.030966 190.804947
L 282.903965 207.263059
L 285.840465 220.332746
L 288.776965 227.985062
L 291.713464 231.915337
L 294.649964 230.261968
L 297.586463 229.028345
L 300.522963 225.017845
L 303.459462 223.231599
L 309.332461 214.52048
L 312.268961 212.721064
L 315.20546 212.592048
L 318.14196 213.70285
L 321.07846 216.36309
L 326.951459 217.36526
L 329.887958 219.538993
L 332.824458 222.201627
L 335.760957 221.93863
L 338.697457 221.272834
L 341.633956 221.688694
L 344.570456 219.348812
L 347.506955 213.745035
L 350.443455 209.813122
L 353.379955 200.491746
L 356.316454 196.229193
L 359.252954 190.86589
L 362.189453 186.806425
L 365.125953 187.641183
L 368.062452 188.702084
L 370.998952 186.548011
L 373.935451 189.953821
L 376.871951 193.009371
L 379.80845 191.836648
L 382.74495 188.548752
L 385.68145 188.418471
L 388.617949 191.874822
L 391.554449 197.403094
L 394.490948 201.451686
L 400.363947 210.9196
L 403.300447 214.117121
L 406.236946 214.179144
L 409.173446 213.584044
L 412.109945 212.514969
L 415.046445 210.614613
L 417.982945 213.281686
L 420.919444 212.068095
L 423.855944 210.269824
L 426.792443 206.078655
L 429.728943 208.136012
L 435.601942 207.763492
L 438.538441 207.740643
L 441.474941 205.087603
L 444.41144 204.714678
L 447.34794 202.991924
L 450.28444 203.358254
L 453.220939 201.501933
L 456.157439 197.329824
L 459.093938 191.807455
L 462.030438 183.040962
L 464.966937 174.733861
L 467.903437 168.163995
L 470.839936 162.454232
L 473.776436 158.799521
L 476.712935 159.709571
L 479.649435 160.165294
L 482.585935 162.892891
L 485.522434 168.630089
L 488.458934 173.57142
L 491.395433 180.145012
L 494.331933 187.740789
L 497.268432 192.143991
L 500.204932 196.041368
L 503.141431 198.066042
L 506.077931 199.574387
L 509.01443 201.431527
L 511.95093 201.268382
L 514.88743 198.774977
L 517.823929 195.060517
L 520.760429 191.107926
L 523.696928 183.586824
L 526.633428 172.93015
L 529.569927 163.387908
L 535.442926 146.138533
L 538.379426 144.271203
L 541.315925 145.344865
L 544.252425 149.266971
L 547.188925 153.828887
L 550.125424 161.121652
L 553.061924 169.402026
L 555.998423 176.763854
L 558.934923 181.159008
L 561.871422 182.968192
L 564.807922 184.998617
L 567.744421 185.684836
L 570.680921 184.767326
L 573.61742 183.46202
L 576.55392 182.031041
L 582.426919 175.530563
L 585.363419 171.3537
L 588.299918 166.224901
L 591.236418 163.133284
L 594.172917 159.413926
L 597.109417 157.614872
L 600.045916 151.979145
L 602.982416 145.391081
L 608.855415 136.399357
L 611.791915 133.487356
L 614.728414 130.785145
L 617.664914 128.376742
L 620.601413 130.172718
L 623.537913 133.16845
L 626.474412 128.842018
L 632.347411 129.853345
L 635.283911 134.83851
L 638.22041 139.323938
L 641.15691 141.049378
L 644.09341 142.064029
L 647.029909 143.489658
L 649.966409 142.346711
L 652.902908 142.076867
L 655.839408 141.293256
L 658.775907 139.534131
L 661.712407 136.71235
L 664.648906 132.512884
L 667.585406 129.230587
L 670.521905 126.336244
L 673.458405 122.797385
L 676.394905 118.741591
L 679.331404 116.996546
L 682.267904 112.34587
L 688.140903 109.209653
L 691.077402 106.22466
L 694.013902 106.626419
L 696.950401 105.460948
L 699.886901 102.371173
L 702.8234 100.754937
L 705.7599 100.414545
L 708.6964 99.722149
L 711.632899 97.089672
L 714.569399 93.325068
L 717.505898 91.244191
L 720.442398 87.431342
L 723.378897 82.847547
L 726.315397 78.984651
L 729.251896 73.853696
L 732.188396 70.20788
L 735.124895 67.554883
L 738.061395 65.839573
L 738.061395 65.839573
" clip-path="url(#p730b078fe6)" style="fill: none; stroke-dasharray: 11,5.4; stroke-dashoffset: 0; stroke: #6f7780; stroke-width: 2"/>
   </g>
   <g id="text_11">
    <!-- $2m_\mu$ -->
    <g style="fill: #697078" transform="translate(630.928345 379.544469)">
     <text>
      <tspan style="font: 10px 'DejaVu Sans'" x="0" y="-0.578125">2</tspan>
      <tspan style="font: oblique 10px 'DejaVu Sans'" x="6.362305" y="-0.578125">m</tspan>
      <tspan style="font: oblique 7px 'DejaVu Sans'" x="16.103516" y="1.0625">μ</tspan>
     </text>
    </g>
   </g>
   <g id="line2d_81">
    <path d="M 59.73 127.688847
L 62.6665 106.745343
L 65.602999 68.651077
L 68.539499 93.38918
L 71.475998 144.698416
L 74.412498 150.57775
L 77.348997 141.534307
L 80.285497 131.393813
L 83.221996 136.768126
L 86.158496 138.178472
L 89.094995 132.097388
L 92.031495 121.120966
L 94.967995 130.854932
L 97.904494 146.346774
L 100.840994 160.488671
L 103.777493 166.741711
L 106.713993 169.189571
L 109.650492 156.667585
L 112.586992 137.776914
L 115.523491 111.373559
L 118.459991 115.633896
L 121.39649 123.969978
L 124.33299 145.899854
L 127.26949 160.073284
L 130.205989 169.835965
L 133.142489 173.165121
L 136.078988 164.11916
L 139.015488 170.409241
L 144.888487 151.579627
L 147.824986 146.254277
L 150.761486 160.238514
L 153.697985 156.418275
L 156.634485 168.448768
L 159.570985 183.67465
L 162.507484 204.500547
L 165.443984 228.26043
L 171.316983 249.816477
L 174.253482 253.63821
L 177.189982 256.022435
L 180.126481 255.153542
L 183.062981 249.202549
L 185.99948 235.145816
L 188.93598 212.643768
L 191.87248 192.180343
L 194.808979 179.928049
L 197.745479 182.949161
L 200.681978 194.874222
L 203.618478 217.103933
L 206.554977 254.947006
L 209.491477 275.887994
L 212.427976 286.949668
L 215.364476 294.543672
L 218.300975 294.621335
L 221.237475 287.908764
L 224.173975 278.581881
L 230.046974 245.193862
L 232.983473 230.489177
L 235.919973 221.302889
L 238.856472 222.219965
L 241.792972 225.813023
L 244.729471 238.134939
L 247.665971 257.522235
L 250.60247 271.986706
L 253.53897 272.922222
L 256.47547 276.649636
L 259.411969 279.603298
L 262.348469 276.975687
L 265.284968 271.21217
L 268.221468 258.320489
L 271.157967 247.557813
L 274.094467 244.63176
L 277.030966 246.802887
L 282.903965 263.642508
L 285.840465 276.90211
L 288.776965 284.739658
L 291.713464 288.850236
L 294.649964 287.37558
L 297.586463 286.321473
L 300.522963 282.484531
L 303.459462 280.870917
L 309.332461 272.488844
L 312.268961 270.84921
L 315.20546 270.87676
L 318.14196 272.140262
L 321.07846 274.950093
L 326.951459 276.240559
L 329.887958 278.553695
L 332.824458 281.353203
L 335.760957 281.223834
L 338.697457 280.687893
L 341.633956 281.230707
L 344.570456 279.015394
L 347.506955 273.53199
L 350.443455 269.717838
L 353.379955 260.51135
L 356.316454 256.361186
L 359.252954 251.105614
L 362.189453 247.150843
L 365.125953 248.090011
L 368.062452 249.250988
L 370.998952 247.193128
L 373.935451 250.692977
L 376.871951 253.840895
L 379.80845 252.757154
L 382.74495 249.554905
L 385.68145 249.508094
L 388.617949 253.046098
L 391.554449 258.652496
L 394.490948 262.777351
L 400.363947 272.389063
L 403.300447 275.654924
L 406.236946 275.783452
L 409.173446 275.252927
L 412.109945 274.245771
L 415.046445 272.405639
L 417.982945 275.131877
L 420.919444 273.974723
L 423.855944 272.230845
L 426.792443 268.092204
L 429.728943 270.200279
L 435.601942 269.922415
L 438.538441 269.94418
L 441.474941 267.335561
L 444.41144 267.004736
L 447.34794 265.322265
L 450.28444 265.726611
L 453.220939 263.907683
L 456.157439 259.771158
L 459.093938 254.283034
L 462.030438 245.549214
L 464.966937 237.274523
L 467.903437 230.735288
L 470.839936 225.054655
L 473.776436 221.42779
L 476.712935 222.365144
L 479.649435 222.847512
L 482.585935 225.599582
L 485.522434 231.360609
L 488.458934 236.326074
L 491.395433 242.921714
L 494.331933 250.53918
L 497.268432 254.963623
L 500.204932 258.880055
L 503.141431 260.923149
L 506.077931 262.450036
L 509.01443 264.324147
L 511.95093 264.178478
L 514.88743 261.700869
L 517.823929 258.00344
L 520.760429 254.06634
L 523.696928 246.559681
L 526.633428 235.917724
L 529.569927 226.389012
L 532.506427 217.847339
L 535.442926 210.137394
L 538.379426 208.270065
L 541.315925 209.343726
L 544.252425 213.265832
L 547.188925 217.827748
L 550.125424 225.120513
L 553.061924 233.400887
L 555.998423 240.762715
L 558.934923 245.157869
L 561.871422 246.967053
L 564.807922 248.997478
L 567.744421 249.683697
L 570.680921 248.766187
L 573.61742 247.460881
L 576.55392 246.029902
L 582.426919 239.529425
L 585.363419 235.352562
L 588.299918 230.223762
L 591.236418 227.132145
L 594.172917 223.412787
L 597.109417 221.613733
L 600.045916 215.978007
L 602.982416 209.389943
L 608.855415 200.398219
L 611.791915 197.486218
L 614.728414 194.784007
L 617.664914 192.375603
L 620.601413 194.17158
L 623.537913 197.167311
L 626.474412 192.840879
L 632.347411 193.852206
L 635.283911 198.837372
L 638.22041 203.3228
L 641.15691 205.048239
L 644.09341 206.06289
L 647.029909 207.488519
L 649.966409 206.345572
L 652.902908 206.075728
L 655.839408 205.292117
L 658.775907 203.532992
L 661.712407 200.711211
L 664.648906 196.511746
L 667.585406 193.229448
L 670.521905 190.335105
L 673.458405 186.796247
L 676.394905 182.740452
L 679.331404 180.995408
L 682.267904 176.344731
L 688.140903 173.208515
L 691.077402 170.223521
L 694.013902 170.62528
L 696.950401 169.459809
L 699.886901 166.370034
L 702.8234 164.753798
L 705.7599 164.413407
L 708.6964 163.72101
L 711.632899 161.088534
L 714.569399 157.32393
L 717.505898 155.243052
L 720.442398 151.430204
L 723.378897 146.846408
L 726.315397 142.983512
L 729.251896 137.852558
L 732.188396 134.206742
L 735.124895 131.553745
L 738.061395 129.838434
L 738.061395 129.838434
" clip-path="url(#p730b078fe6)" style="fill: none; stroke: #164a7b; stroke-width: 2.9; stroke-linecap: round"/>
   </g>
   <g id="legend_1">
    <g id="line2d_82">
     <path d="M 151.186166 19.760328
L 163.061166 19.760328
L 174.936166 19.760328
" style="fill: none; stroke: #c98200; stroke-width: 2.6; stroke-linecap: round"/>
    </g>
    <g id="text_12">
     <!-- BaBar visible $A^\prime$ (2014) -->
     <g transform="translate(182.536166 23.085328)">
      <text>
       <tspan style="font: 9.5px 'DejaVu Sans'" x="0 6.517334 12.338867 18.856201 24.677734 28.583496 31.603271 37.225342 39.864746 44.814209 47.453613 53.483887 56.123291 61.968018 74.290662 77.310438 81.016737 87.060926 93.105116 99.149305 105.193494" y="-0.40625">BaBar visible  (2014)</tspan>
       <tspan style="font: oblique 9.5px 'DejaVu Sans'" x="64.987793" y="-0.40625">A</tspan>
       <tspan style="font: 6.65px 'cmsy10'" x="72.189124" y="-4.234375">0</tspan>
      </text>
     </g>
    </g>
    <g id="line2d_83">
     <path d="M 305.181166 19.760328
L 317.056166 19.760328
L 328.931166 19.760328
" style="fill: none; stroke-dasharray: 11,5.4; stroke-dashoffset: 0; stroke: #6f7780; stroke-width: 2"/>
    </g>
    <g id="text_13">
     <text style="font: 9.5px 'DejaVu Sans'" transform="translate(336.531166 16.778516)">HPS combined observed</text>
     <text style="font: 9.5px 'DejaVu Sans'" transform="translate(336.531166 27.416437)">(2021 at 10%)</text>
    </g>
    <g id="line2d_84">
     <path d="M 466.148276 19.760328
L 478.023276 19.760328
L 489.898276 19.760328
" style="fill: none; stroke: #164a7b; stroke-width: 2.9; stroke-linecap: round"/>
    </g>
    <g id="text_14">
     <text style="font: 9.5px 'DejaVu Sans'" transform="translate(497.498276 16.778516)">HPS observed-equivalent proxy</text>
     <text style="font: 9.5px 'DejaVu Sans'" transform="translate(497.498276 27.416437)">(2021 at 100%)</text>
    </g>
   </g>
  </g>
 </g>
 <defs>
  <clipPath id="p730b078fe6">
   <rect x="59.73" y="41.477549" width="678.331395" height="353.54085"/>
  </clipPath>
 </defs>
</svg>
